<?xml version="1.0" encoding="UTF-8"?>
<svg id="Layer_2" data-name="Layer 2" xmlns="http://www.w3.org/2000/svg" viewBox="0 0 79.92 68.43">
  <defs>
    <style>
      .cls-1 {
        fill: #f8487e;
      }

      .cls-2 {
        fill: #ac0032;
      }

      .cls-3 {
        fill: #dc1763;
      }
    </style>
  </defs>
  <g id="Layer_1-2" data-name="Layer 1">
    <path class="cls-3" d="M55.82,0c3.98,5.23,8,10.68,12.03,16.37,4.26,6,8.27,11.91,12.07,17.69-2.67,4.75-5.34,9.66-8,14.73-3.21,6.13-6.22,12.15-9.03,18.03-2.74-3.21-5.08-6.15-7.02-8.7-2.74-3.58-4.29-5.86-10.12-14.14-2.45-3.49-4.62-6.56-6.42-9.09,.27-.56,1.15-2.42,1.42-2.99C45.81,21.26,50.83,10.63,55.82,0Z"/>
    <path class="cls-1" d="M39.38,34.69c3.36,4.71,6.77,9.45,10.23,14.2,4.48,6.17,8.96,12.25,13.43,18.26-5.58,.35-10.41,.58-14.27,.75-3.89,.17-8.2,.35-13.92,.45-4.4,.08-8.13,.09-10.96,.08-1.52-1.84-3.65-4.45-6.15-7.6-4.58-5.76-7.12-8.96-9.96-13.05-2.1-3.02-4.84-7.22-7.77-12.51,13.13-.19,26.25-.38,39.38-.57Z"/>
    <path class="cls-2" d="M39.39,34.79c-13.13,.16-26.26,.31-39.39,.47C3.89,25.51,8.75,15.43,14.82,5.26c.83-1.39,1.66-2.75,2.5-4.09,1.28-.04,3.19-.1,5.51-.17,6.82-.22,11.61-.41,13.58-.48,4.37-.16,10.79-.36,19.41-.51-5.04,10.61-10.06,21.24-15.07,31.9-.22,.46-1.14,2.43-1.36,2.89Z"/>
  </g>
</svg>